
<svg xmlns="http://www.w3.org/2000/svg" width="900" height="700" viewBox="0 0 900 700">
  <style>
    text {
      font-family: -apple-system, BlinkMacSystemFont, 'Segoe UI', Roboto, Arial, sans-serif;
      fill: #333;
    }
    .title {
      font-size: 28px;
      font-weight: bold;
    }
    .subtitle {
      font-size: 18px;
      fill: #666;
    }
    .label {
      font-size: 14px;
      fill: #666;
    }
    .value {
      font-size: 16px;
      font-weight: bold;
    }
    .success-fill { fill: #4caf50; }
    .fallback-fill { fill: #ff9800; }
    .error-fill { fill: #f44336; }
    .grid-line { stroke: #e0e0e0; stroke-width: 1; }
    .border { fill: none; stroke: #ccc; stroke-width: 2; }
    .legend-box { fill: white; stroke: #ccc; stroke-width: 1; }
  </style>
  
  <!-- Background -->
  <rect width="900" height="700" fill="white" />
  
  <!-- Title -->
  <text x="450" y="50" class="title" text-anchor="middle">UltraLink Visualization Test Results</text>
  <text x="450" y="85" class="subtitle" text-anchor="middle">System vs. Format Success Rate</text>
  
  <!-- Grid -->
  <g transform="translate(180, 140)">
    <!-- Grid lines -->
    <line x1="0" y1="0" x2="600" y2="0" class="grid-line" />
    <line x1="0" y1="100" x2="600" y2="100" class="grid-line" />
    <line x1="0" y1="200" x2="600" y2="200" class="grid-line" />
    <line x1="0" y1="300" x2="600" y2="300" class="grid-line" />
    <line x1="0" y1="400" x2="600" y2="400" class="grid-line" />
    
    <line x1="0" y1="0" x2="0" y2="400" class="grid-line" />
    <line x1="150" y1="0" x2="150" y2="400" class="grid-line" />
    <line x1="300" y1="0" x2="300" y2="400" class="grid-line" />
    <line x1="450" y1="0" x2="450" y2="400" class="grid-line" />
    <line x1="600" y1="0" x2="600" y2="400" class="grid-line" />
    
    <!-- Border -->
    <rect x="0" y="0" width="600" height="400" class="border" />
    
    <!-- Format labels -->
    <text x="75" y="-15" class="label" text-anchor="middle">SVG</text>
    <text x="225" y="-15" class="label" text-anchor="middle">PNG</text>
    <text x="375" y="-15" class="label" text-anchor="middle">D3</text>
    <text x="525" y="-15" class="label" text-anchor="middle">Cytoscape</text>
    
    <!-- System labels -->
    <text x="-20" y="50" class="label" text-anchor="end" dominant-baseline="middle">ResearchTeam</text>
    <text x="-20" y="150" class="label" text-anchor="end" dominant-baseline="middle">DesertEcosystem</text>
    <text x="-20" y="250" class="label" text-anchor="end" dominant-baseline="middle">ActiveInferenceLab</text>
    <text x="-20" y="350" class="label" text-anchor="end" dominant-baseline="middle">USAHistory</text>
  
    <circle cx="75" cy="50" r="30" fill="#ff9800" />
    <text x="75" y="50" class="value" text-anchor="middle" dominant-baseline="middle" fill="white">
      ⚠
    </text>
    <circle cx="225" cy="50" r="30" fill="#ff9800" />
    <text x="225" y="50" class="value" text-anchor="middle" dominant-baseline="middle" fill="white">
      ⚠
    </text>
    <circle cx="375" cy="50" r="30" fill="#ff9800" />
    <text x="375" y="50" class="value" text-anchor="middle" dominant-baseline="middle" fill="white">
      ⚠
    </text>
    <circle cx="525" cy="50" r="30" fill="#ff9800" />
    <text x="525" y="50" class="value" text-anchor="middle" dominant-baseline="middle" fill="white">
      ⚠
    </text>
    <circle cx="75" cy="150" r="30" fill="#4caf50" />
    <text x="75" y="150" class="value" text-anchor="middle" dominant-baseline="middle" fill="white">
      ✓
    </text>
    <circle cx="225" cy="150" r="30" fill="#ff9800" />
    <text x="225" y="150" class="value" text-anchor="middle" dominant-baseline="middle" fill="white">
      ⚠
    </text>
    <circle cx="375" cy="150" r="30" fill="#ff9800" />
    <text x="375" y="150" class="value" text-anchor="middle" dominant-baseline="middle" fill="white">
      ⚠
    </text>
    <circle cx="525" cy="150" r="30" fill="#ff9800" />
    <text x="525" y="150" class="value" text-anchor="middle" dominant-baseline="middle" fill="white">
      ⚠
    </text>
    <circle cx="75" cy="250" r="30" fill="#4caf50" />
    <text x="75" y="250" class="value" text-anchor="middle" dominant-baseline="middle" fill="white">
      ✓
    </text>
    <circle cx="225" cy="250" r="30" fill="#ff9800" />
    <text x="225" y="250" class="value" text-anchor="middle" dominant-baseline="middle" fill="white">
      ⚠
    </text>
    <circle cx="375" cy="250" r="30" fill="#ff9800" />
    <text x="375" y="250" class="value" text-anchor="middle" dominant-baseline="middle" fill="white">
      ⚠
    </text>
    <circle cx="525" cy="250" r="30" fill="#ff9800" />
    <text x="525" y="250" class="value" text-anchor="middle" dominant-baseline="middle" fill="white">
      ⚠
    </text>
    <circle cx="75" cy="350" r="30" fill="#4caf50" />
    <text x="75" y="350" class="value" text-anchor="middle" dominant-baseline="middle" fill="white">
      ✓
    </text>
    <circle cx="225" cy="350" r="30" fill="#ff9800" />
    <text x="225" y="350" class="value" text-anchor="middle" dominant-baseline="middle" fill="white">
      ⚠
    </text>
    <circle cx="375" cy="350" r="30" fill="#ff9800" />
    <text x="375" y="350" class="value" text-anchor="middle" dominant-baseline="middle" fill="white">
      ⚠
    </text>
    <circle cx="525" cy="350" r="30" fill="#ff9800" />
    <text x="525" y="350" class="value" text-anchor="middle" dominant-baseline="middle" fill="white">
      ⚠
    </text>
    <!-- Summary Stats -->
    <g transform="translate(450, 580)">
      <text x="0" y="-40" class="subtitle" text-anchor="middle" font-weight="bold">Overall Status</text>
      
      <!-- Pie chart with proper angles -->
      <g>
        <!-- Success slice -->
        <path d="M 0 0 L 70 0 A 70 70 0 0 1 26.787840265556287 -64.67156727579007 Z" class="success-fill" />
        
        <!-- Fallback slice -->
        <path d="M 0 0 L 26.787840265556287 -64.67156727579007 A 70 70 0 1 1 70 1.7145055188062946e-14 Z" class="fallback-fill" />
        
        <!-- Error slice -->
        
      </g>
    </g>
    
    <!-- Legend -->
    <g transform="translate(650, 580)">
      <rect x="-20" y="-60" width="160" height="120" class="legend-box" rx="5" />
      
      <circle cx="0" cy="-40" r="10" class="success-fill" />
      <text x="20" y="-36" class="label">Success (3)</text>
      
      <circle cx="0" cy="0" r="10" class="fallback-fill" />
      <text x="20" y="4" class="label">Fallback (13)</text>
      
      <circle cx="0" cy="40" r="10" class="error-fill" />
      <text x="20" y="44" class="label">Error (0)</text>
    </g>
  </g>
  
  <!-- Footer -->
  <text x="450" y="670" class="label" text-anchor="middle">Generated on 3/18/2025</text>
</svg>