<?xml version="1.0" encoding="UTF-8"?>
<svg xmlns="http://www.w3.org/2000/svg" width="800" height="600">
    <style>
        .node { fill: #69b3a2; }
        .link { stroke: #999; stroke-opacity: 0.6; }
        text { font-family: sans-serif; font-size: 10px; }
    </style>
    <g class="links">
        <line class="link" x1="0" y1="0" x2="100" y2="100"/>
<line class="link" x1="0" y1="0" x2="100" y2="100"/>
<line class="link" x1="0" y1="0" x2="100" y2="100"/>
<line class="link" x1="0" y1="0" x2="100" y2="100"/>
<line class="link" x1="0" y1="0" x2="100" y2="100"/>
<line class="link" x1="0" y1="0" x2="100" y2="100"/>
<line class="link" x1="0" y1="0" x2="100" y2="100"/>
<line class="link" x1="0" y1="0" x2="100" y2="100"/>
<line class="link" x1="0" y1="0" x2="100" y2="100"/>
<line class="link" x1="0" y1="0" x2="100" y2="100"/>
<line class="link" x1="0" y1="0" x2="100" y2="100"/>
<line class="link" x1="0" y1="0" x2="100" y2="100"/>
<line class="link" x1="0" y1="0" x2="100" y2="100"/>
<line class="link" x1="0" y1="0" x2="100" y2="100"/>
<line class="link" x1="0" y1="0" x2="100" y2="100"/>
<line class="link" x1="0" y1="0" x2="100" y2="100"/>
<line class="link" x1="0" y1="0" x2="100" y2="100"/>
<line class="link" x1="0" y1="0" x2="100" y2="100"/>
<line class="link" x1="0" y1="0" x2="100" y2="100"/>
<line class="link" x1="0" y1="0" x2="100" y2="100"/>
<line class="link" x1="0" y1="0" x2="100" y2="100"/>
<line class="link" x1="0" y1="0" x2="100" y2="100"/>
<line class="link" x1="0" y1="0" x2="100" y2="100"/>
<line class="link" x1="0" y1="0" x2="100" y2="100"/>
<line class="link" x1="0" y1="0" x2="100" y2="100"/>
<line class="link" x1="0" y1="0" x2="100" y2="100"/>
<line class="link" x1="0" y1="0" x2="100" y2="100"/>
<line class="link" x1="0" y1="0" x2="100" y2="100"/>
<line class="link" x1="0" y1="0" x2="100" y2="100"/>
<line class="link" x1="0" y1="0" x2="100" y2="100"/>
<line class="link" x1="0" y1="0" x2="100" y2="100"/>
<line class="link" x1="0" y1="0" x2="100" y2="100"/>
<line class="link" x1="0" y1="0" x2="100" y2="100"/>
<line class="link" x1="0" y1="0" x2="100" y2="100"/>
<line class="link" x1="0" y1="0" x2="100" y2="100"/>
<line class="link" x1="0" y1="0" x2="100" y2="100"/>
<line class="link" x1="0" y1="0" x2="100" y2="100"/>
<line class="link" x1="0" y1="0" x2="100" y2="100"/>
<line class="link" x1="0" y1="0" x2="100" y2="100"/>
<line class="link" x1="0" y1="0" x2="100" y2="100"/>
<line class="link" x1="0" y1="0" x2="100" y2="100"/>
<line class="link" x1="0" y1="0" x2="100" y2="100"/>
<line class="link" x1="0" y1="0" x2="100" y2="100"/>
<line class="link" x1="0" y1="0" x2="100" y2="100"/>
<line class="link" x1="0" y1="0" x2="100" y2="100"/>
<line class="link" x1="0" y1="0" x2="100" y2="100"/>
    </g>
    <g class="nodes">
        <circle class="node" cx="100" cy="100" r="5">
              <title>alice</title>
           </circle>
<circle class="node" cx="150" cy="130" r="5">
              <title>bob</title>
           </circle>
<circle class="node" cx="200" cy="160" r="5">
              <title>carol</title>
           </circle>
<circle class="node" cx="250" cy="190" r="5">
              <title>david</title>
           </circle>
<circle class="node" cx="300" cy="220" r="5">
              <title>emma</title>
           </circle>
<circle class="node" cx="350" cy="250" r="5">
              <title>frank</title>
           </circle>
<circle class="node" cx="400" cy="280" r="5">
              <title>grace</title>
           </circle>
<circle class="node" cx="450" cy="310" r="5">
              <title>active-inference-model</title>
           </circle>
<circle class="node" cx="500" cy="340" r="5">
              <title>ant-colony-study</title>
           </circle>
<circle class="node" cx="550" cy="370" r="5">
              <title>neural-basis</title>
           </circle>
<circle class="node" cx="600" cy="400" r="5">
              <title>active-inference</title>
           </circle>
<circle class="node" cx="650" cy="430" r="5">
              <title>collective-behavior</title>
           </circle>
<circle class="node" cx="700" cy="460" r="5">
              <title>swarm-intelligence</title>
           </circle>
<circle class="node" cx="750" cy="490" r="5">
              <title>ant-tracking</title>
           </circle>
<circle class="node" cx="800" cy="520" r="5">
              <title>neural-recording</title>
           </circle>
<circle class="node" cx="850" cy="550" r="5">
              <title>computation-cluster</title>
           </circle>
<circle class="node" cx="900" cy="580" r="5">
              <title>paper-2023a</title>
           </circle>
<circle class="node" cx="950" cy="610" r="5">
              <title>paper-2023b</title>
           </circle>
<circle class="node" cx="1000" cy="640" r="5">
              <title>paper-2024</title>
           </circle>
    </g>
</svg>