<svg xmlns="http://www.w3.org/2000/svg" width="800" height="600" viewBox="0 0 800 600"><style>
    .links line { stroke: #999; stroke-opacity: 0.6; }
    .nodes circle { stroke: #fff; stroke-width: 1.5px; }
    text { font-family: Arial, sans-serif; font-size: 12px; }
  </style><g class="links"><line x1="800" y1="600" x2="800" y2="600" stroke="gray" stroke-width="1" /><line x1="800" y1="600" x2="0" y2="0" stroke="gray" stroke-width="1" /><line x1="800" y1="600" x2="0" y2="0" stroke="gray" stroke-width="1" /><line x1="0" y1="600" x2="800" y2="600" stroke="gray" stroke-width="1" /><line x1="800" y1="600" x2="0" y2="0" stroke="gray" stroke-width="1" /><line x1="800" y1="600" x2="0" y2="0" stroke="gray" stroke-width="1" /><line x1="0" y1="600" x2="0" y2="0" stroke="gray" stroke-width="1" /><line x1="800" y1="600" x2="0" y2="0" stroke="gray" stroke-width="1" /><line x1="0" y1="600" x2="0" y2="600" stroke="gray" stroke-width="1" /><line x1="0" y1="0" x2="0" y2="600" stroke="gray" stroke-width="1" /><line x1="0" y1="0" x2="800" y2="600" stroke="gray" stroke-width="1" /><line x1="800" y1="600" x2="0" y2="0" stroke="gray" stroke-width="1" /><line x1="800" y1="600" x2="0" y2="0" stroke="gray" stroke-width="1" /><line x1="800" y1="600" x2="0" y2="600" stroke="gray" stroke-width="1" /><line x1="800" y1="600" x2="800" y2="600" stroke="gray" stroke-width="1" /><line x1="800" y1="600" x2="0" y2="0" stroke="gray" stroke-width="1" /><line x1="800" y1="600" x2="0" y2="0" stroke="gray" stroke-width="1" /><line x1="0" y1="600" x2="0" y2="0" stroke="gray" stroke-width="1" /><line x1="800" y1="600" x2="800" y2="0" stroke="gray" stroke-width="1" /><line x1="0" y1="600" x2="800" y2="0" stroke="gray" stroke-width="1" /><line x1="800" y1="600" x2="800" y2="600" stroke="gray" stroke-width="1" /><line x1="800" y1="600" x2="800" y2="600" stroke="gray" stroke-width="1" /><line x1="800" y1="600" x2="0" y2="600" stroke="gray" stroke-width="1" /><line x1="800" y1="600" x2="0" y2="600" stroke="gray" stroke-width="1" /><line x1="0" y1="600" x2="0" y2="600" stroke="gray" stroke-width="1" /><line x1="0" y1="600" x2="0" y2="600" stroke="gray" stroke-width="1" /><line x1="800" y1="600" x2="0" y2="600" stroke="gray" stroke-width="1" /><line x1="0" y1="600" x2="800" y2="0" stroke="gray" stroke-width="1" /><line x1="800" y1="600" x2="800" y2="0" stroke="gray" stroke-width="1" /><line x1="800" y1="600" x2="0" y2="600" stroke="gray" stroke-width="1" /><line x1="800" y1="600" x2="0" y2="600" stroke="gray" stroke-width="1" /><line x1="800" y1="600" x2="0" y2="600" stroke="gray" stroke-width="1" /><line x1="800" y1="600" x2="800" y2="0" stroke="gray" stroke-width="1" /><line x1="0" y1="0" x2="800" y2="600" stroke="gray" stroke-width="1" /><line x1="0" y1="0" x2="0" y2="600" stroke="gray" stroke-width="1" /><line x1="0" y1="0" x2="0" y2="600" stroke="gray" stroke-width="1" /><line x1="0" y1="600" x2="0" y2="600" stroke="gray" stroke-width="1" /><line x1="0" y1="0" x2="800" y2="0" stroke="gray" stroke-width="1" /><line x1="800" y1="600" x2="0" y2="0" stroke="gray" stroke-width="1" /><line x1="0" y1="0" x2="0" y2="0" stroke="gray" stroke-width="1" /><line x1="0" y1="600" x2="0" y2="600" stroke="gray" stroke-width="1" /><line x1="0" y1="0" x2="0" y2="0" stroke="gray" stroke-width="1" /><line x1="0" y1="0" x2="800" y2="0" stroke="gray" stroke-width="1" /><line x1="0" y1="0" x2="0" y2="0" stroke="gray" stroke-width="1" /><line x1="0" y1="0" x2="800" y2="0" stroke="gray" stroke-width="1" /><line x1="0" y1="600" x2="0" y2="600" stroke="gray" stroke-width="1" /><line x1="0" y1="600" x2="0" y2="0" stroke="gray" stroke-width="1" /><line x1="0" y1="0" x2="800" y2="0" stroke="gray" stroke-width="1" /><line x1="800" y1="600" x2="800" y2="0" stroke="gray" stroke-width="1" /><line x1="0" y1="600" x2="0" y2="0" stroke="gray" stroke-width="1" /><line x1="800" y1="0" x2="0" y2="0" stroke="gray" stroke-width="1" /><line x1="800" y1="0" x2="800" y2="0" stroke="gray" stroke-width="1" /><line x1="800" y1="600" x2="0" y2="0" stroke="gray" stroke-width="1" /><line x1="800" y1="600" x2="800" y2="0" stroke="gray" stroke-width="1" /><line x1="0" y1="600" x2="800" y2="0" stroke="gray" stroke-width="1" /><line x1="800" y1="0" x2="0" y2="0" stroke="gray" stroke-width="1" /><line x1="800" y1="0" x2="800" y2="600" stroke="gray" stroke-width="1" /><line x1="800" y1="0" x2="800" y2="0" stroke="gray" stroke-width="1" /><line x1="800" y1="0" x2="0" y2="0" stroke="gray" stroke-width="1" /><line x1="800" y1="600" x2="0" y2="0" stroke="gray" stroke-width="1" /><line x1="800" y1="600" x2="800" y2="0" stroke="gray" stroke-width="1" /><line x1="0" y1="600" x2="800" y2="600" stroke="gray" stroke-width="1" /><line x1="0" y1="600" x2="800" y2="0" stroke="gray" stroke-width="1" /><line x1="0" y1="600" x2="0" y2="0" stroke="gray" stroke-width="1" /><line x1="800" y1="600" x2="0" y2="0" stroke="gray" stroke-width="1" /><line x1="800" y1="600" x2="0" y2="0" stroke="gray" stroke-width="1" /><line x1="0" y1="0" x2="0" y2="0" stroke="gray" stroke-width="1" /><line x1="800" y1="600" x2="0" y2="0" stroke="gray" stroke-width="1" /><line x1="800" y1="600" x2="800" y2="0" stroke="gray" stroke-width="1" /><line x1="0" y1="0" x2="800" y2="0" stroke="gray" stroke-width="1" /><line x1="0" y1="0" x2="800" y2="0" stroke="gray" stroke-width="1" /><line x1="0" y1="0" x2="0" y2="0" stroke="gray" stroke-width="1" /><line x1="0" y1="0" x2="800" y2="0" stroke="gray" stroke-width="1" /><line x1="0" y1="0" x2="800" y2="600" stroke="gray" stroke-width="1" /><line x1="0" y1="0" x2="800" y2="0" stroke="gray" stroke-width="1" /><line x1="0" y1="600" x2="0" y2="0" stroke="gray" stroke-width="1" /><line x1="0" y1="600" x2="800" y2="0" stroke="gray" stroke-width="1" /><line x1="800" y1="0" x2="800" y2="600" stroke="gray" stroke-width="1" /><line x1="800" y1="0" x2="0" y2="600" stroke="gray" stroke-width="1" /><line x1="0" y1="600" x2="0" y2="0" stroke="gray" stroke-width="1" /><line x1="0" y1="600" x2="0" y2="0" stroke="gray" stroke-width="1" /><line x1="800" y1="0" x2="0" y2="0" stroke="gray" stroke-width="1" /><line x1="800" y1="600" x2="800" y2="600" stroke="gray" stroke-width="1" /><line x1="800" y1="600" x2="0" y2="0" stroke="gray" stroke-width="1" /><line x1="800" y1="600" x2="0" y2="0" stroke="gray" stroke-width="1" /><line x1="800" y1="600" x2="0" y2="0" stroke="gray" stroke-width="1" /><line x1="800" y1="600" x2="0" y2="600" stroke="gray" stroke-width="1" /><line x1="0" y1="600" x2="0" y2="600" stroke="gray" stroke-width="1" /><line x1="0" y1="600" x2="800" y2="0" stroke="gray" stroke-width="1" /><line x1="0" y1="600" x2="800" y2="600" stroke="gray" stroke-width="1" /><line x1="0" y1="600" x2="800" y2="0" stroke="gray" stroke-width="1" /><line x1="800" y1="0" x2="0" y2="600" stroke="gray" stroke-width="1" /></g><g class="nodes"><circle cx="800" cy="600" r="5" fill="#4285F4" /><text x="800" y="620" text-anchor="middle" font-size="12">Alice Chen</text><circle cx="800" cy="600" r="5" fill="#4285F4" /><text x="800" y="620" text-anchor="middle" font-size="12">Bob Smith</text><circle cx="0" cy="600" r="5" fill="#4285F4" /><text x="0" y="620" text-anchor="middle" font-size="12">Carol Jones</text><circle cx="800" cy="600" r="5" fill="#4285F4" /><text x="800" y="620" text-anchor="middle" font-size="12">David Patel</text><circle cx="0" cy="0" r="5" fill="#4285F4" /><text x="0" y="20" text-anchor="middle" font-size="12">Elena Rodriguez</text><circle cx="0" cy="600" r="5" fill="#4285F4" /><text x="0" y="620" text-anchor="middle" font-size="12">Frank Zhang</text><circle cx="800" cy="600" r="5" fill="#4285F4" /><text x="800" y="620" text-anchor="middle" font-size="12">Grace Kim</text><circle cx="800" cy="600" r="5" fill="#4285F4" /><text x="800" y="620" text-anchor="middle" font-size="12">computer-vision-project</text><circle cx="0" cy="0" r="5" fill="#4285F4" /><text x="0" y="20" text-anchor="middle" font-size="12">nlp-project</text><circle cx="0" cy="0" r="5" fill="#4285F4" /><text x="0" y="20" text-anchor="middle" font-size="12">federated-learning-project</text><circle cx="0" cy="0" r="5" fill="#4285F4" /><text x="0" y="20" text-anchor="middle" font-size="12">quantum-ml-project</text><circle cx="0" cy="600" r="5" fill="#4285F4" /><text x="0" y="620" text-anchor="middle" font-size="12">adaptive-robotics-project</text><circle cx="800" cy="0" r="5" fill="#4285F4" /><text x="800" y="20" text-anchor="middle" font-size="12">vision-paper-2022</text><circle cx="800" cy="600" r="5" fill="#4285F4" /><text x="800" y="620" text-anchor="middle" font-size="12">nlp-paper-2023</text><circle cx="0" cy="600" r="5" fill="#4285F4" /><text x="0" y="620" text-anchor="middle" font-size="12">federated-paper-2023</text><circle cx="0" cy="600" r="5" fill="#4285F4" /><text x="0" y="620" text-anchor="middle" font-size="12">robotics-paper-2022</text><circle cx="800" cy="0" r="5" fill="#4285F4" /><text x="800" y="20" text-anchor="middle" font-size="12">quantum-paper-2023</text><circle cx="0" cy="600" r="5" fill="#4285F4" /><text x="0" y="620" text-anchor="middle" font-size="12">survey-paper-2023</text><circle cx="0" cy="0" r="5" fill="#4285F4" /><text x="0" y="20" text-anchor="middle" font-size="12">High-Performance GPU Cluster</text><circle cx="0" cy="600" r="5" fill="#4285F4" /><text x="0" y="620" text-anchor="middle" font-size="12">Robotics Laboratory</text><circle cx="0" cy="0" r="5" fill="#4285F4" /><text x="0" y="20" text-anchor="middle" font-size="12">Quantum Computing Access</text><circle cx="800" cy="0" r="5" fill="#4285F4" /><text x="800" y="20" text-anchor="middle" font-size="12">University High-Performance Computing Cluster</text><circle cx="0" cy="0" r="5" fill="#4285F4" /><text x="0" y="20" text-anchor="middle" font-size="12">Field Data Collection System</text><circle cx="800" cy="0" r="5" fill="#4285F4" /><text x="800" y="20" text-anchor="middle" font-size="12">Research Team Conference Room</text><circle cx="800" cy="0" r="5" fill="#4285F4" /><text x="800" y="20" text-anchor="middle" font-size="12">Data Visualization Laboratory</text><circle cx="800" cy="0" r="5" fill="#4285F4" /><text x="800" y="20" text-anchor="middle" font-size="12">Machine Learning Theory</text><circle cx="0" cy="0" r="5" fill="#4285F4" /><text x="0" y="20" text-anchor="middle" font-size="12">Computer Vision</text><circle cx="800" cy="0" r="5" fill="#4285F4" /><text x="800" y="20" text-anchor="middle" font-size="12">Natural Language Processing</text><circle cx="0" cy="0" r="5" fill="#4285F4" /><text x="0" y="20" text-anchor="middle" font-size="12">Privacy-Preserving Machine Learning</text><circle cx="800" cy="600" r="5" fill="#4285F4" /><text x="800" y="620" text-anchor="middle" font-size="12">Quantum Machine Learning</text><circle cx="0" cy="0" r="5" fill="#4285F4" /><text x="0" y="20" text-anchor="middle" font-size="12">Robotics</text><circle cx="800" cy="0" r="5" fill="#4285F4" /><text x="800" y="20" text-anchor="middle" font-size="12">Reinforcement Learning</text><circle cx="800" cy="0" r="5" fill="#4285F4" /><text x="800" y="20" text-anchor="middle" font-size="12">NSF Research Grant</text><circle cx="0" cy="600" r="5" fill="#4285F4" /><text x="0" y="620" text-anchor="middle" font-size="12">Tech Industry Partnership</text><circle cx="800" cy="0" r="5" fill="#4285F4" /><text x="800" y="20" text-anchor="middle" font-size="12">University Research Excellence Fund</text></g></svg>