<?xml version="1.0" encoding="UTF-8"?>
<svg xmlns="http://www.w3.org/2000/svg" width="800" height="600">
    <style>
        .node { fill: #69b3a2; }
        .link { stroke: #999; stroke-opacity: 0.6; }
        text { font-family: sans-serif; font-size: 10px; }
    </style>
    <g class="links">
        <line class="link" x1="0" y1="0" x2="100" y2="100"/>
<line class="link" x1="0" y1="0" x2="100" y2="100"/>
<line class="link" x1="0" y1="0" x2="100" y2="100"/>
<line class="link" x1="0" y1="0" x2="100" y2="100"/>
<line class="link" x1="0" y1="0" x2="100" y2="100"/>
<line class="link" x1="0" y1="0" x2="100" y2="100"/>
<line class="link" x1="0" y1="0" x2="100" y2="100"/>
<line class="link" x1="0" y1="0" x2="100" y2="100"/>
<line class="link" x1="0" y1="0" x2="100" y2="100"/>
<line class="link" x1="0" y1="0" x2="100" y2="100"/>
<line class="link" x1="0" y1="0" x2="100" y2="100"/>
<line class="link" x1="0" y1="0" x2="100" y2="100"/>
<line class="link" x1="0" y1="0" x2="100" y2="100"/>
<line class="link" x1="0" y1="0" x2="100" y2="100"/>
<line class="link" x1="0" y1="0" x2="100" y2="100"/>
<line class="link" x1="0" y1="0" x2="100" y2="100"/>
<line class="link" x1="0" y1="0" x2="100" y2="100"/>
<line class="link" x1="0" y1="0" x2="100" y2="100"/>
<line class="link" x1="0" y1="0" x2="100" y2="100"/>
<line class="link" x1="0" y1="0" x2="100" y2="100"/>
<line class="link" x1="0" y1="0" x2="100" y2="100"/>
<line class="link" x1="0" y1="0" x2="100" y2="100"/>
<line class="link" x1="0" y1="0" x2="100" y2="100"/>
<line class="link" x1="0" y1="0" x2="100" y2="100"/>
<line class="link" x1="0" y1="0" x2="100" y2="100"/>
<line class="link" x1="0" y1="0" x2="100" y2="100"/>
    </g>
    <g class="nodes">
        <circle class="node" cx="100" cy="100" r="5">
              <title>eeg-neurofeedback</title>
           </circle>
<circle class="node" cx="150" cy="130" r="5">
              <title>fmri-neurofeedback</title>
           </circle>
<circle class="node" cx="200" cy="160" r="5">
              <title>fnirs-neurofeedback</title>
           </circle>
<circle class="node" cx="250" cy="190" r="5">
              <title>meg-neurofeedback</title>
           </circle>
<circle class="node" cx="300" cy="220" r="5">
              <title>smr-training</title>
           </circle>
<circle class="node" cx="350" cy="250" r="5">
              <title>alpha-training</title>
           </circle>
<circle class="node" cx="400" cy="280" r="5">
              <title>theta-training</title>
           </circle>
<circle class="node" cx="450" cy="310" r="5">
              <title>beta-training</title>
           </circle>
<circle class="node" cx="500" cy="340" r="5">
              <title>alpha-theta-training</title>
           </circle>
<circle class="node" cx="550" cy="370" r="5">
              <title>infra-low-frequency</title>
           </circle>
<circle class="node" cx="600" cy="400" r="5">
              <title>adhd-treatment</title>
           </circle>
<circle class="node" cx="650" cy="430" r="5">
              <title>anxiety-treatment</title>
           </circle>
<circle class="node" cx="700" cy="460" r="5">
              <title>epilepsy-treatment</title>
           </circle>
<circle class="node" cx="750" cy="490" r="5">
              <title>insomnia-treatment</title>
           </circle>
<circle class="node" cx="800" cy="520" r="5">
              <title>ptsd-treatment</title>
           </circle>
<circle class="node" cx="850" cy="550" r="5">
              <title>sterman-mb</title>
           </circle>
<circle class="node" cx="900" cy="580" r="5">
              <title>lubar-jf</title>
           </circle>
<circle class="node" cx="950" cy="610" r="5">
              <title>peniston-eg</title>
           </circle>
<circle class="node" cx="1000" cy="640" r="5">
              <title>othmer-sf</title>
           </circle>
<circle class="node" cx="1050" cy="670" r="5">
              <title>eeg-amplifier</title>
           </circle>
<circle class="node" cx="1100" cy="700" r="5">
              <title>eeg-cap</title>
           </circle>
<circle class="node" cx="1150" cy="730" r="5">
              <title>nf-software</title>
           </circle>
<circle class="node" cx="1200" cy="760" r="5">
              <title>sterman-epilepsy-1972</title>
           </circle>
<circle class="node" cx="1250" cy="790" r="5">
              <title>lubar-adhd-1976</title>
           </circle>
<circle class="node" cx="1300" cy="820" r="5">
              <title>peniston-alcoholism-1989</title>
           </circle>
<circle class="node" cx="1350" cy="850" r="5">
              <title>arns-tdcs-2012</title>
           </circle>
<circle class="node" cx="1400" cy="880" r="5">
              <title>operant-conditioning</title>
           </circle>
<circle class="node" cx="1450" cy="910" r="5">
              <title>neuroplasticity</title>
           </circle>
<circle class="node" cx="1500" cy="940" r="5">
              <title>arousal-model</title>
           </circle>
    </g>
</svg>