<svg xmlns="http://www.w3.org/2000/svg" width="800" height="600" viewBox="0 0 800 600"><style>
    .links line { stroke: #999; stroke-opacity: 0.6; }
    .nodes circle { stroke: #fff; stroke-width: 1.5px; }
    text { font-family: Arial, sans-serif; font-size: 12px; }
  </style><g class="links"><line x1="800" y1="0" x2="800" y2="0" stroke="gray" stroke-width="1" /><line x1="800" y1="600" x2="800" y2="0" stroke="gray" stroke-width="1" /><line x1="800" y1="600" x2="800" y2="0" stroke="gray" stroke-width="1" /><line x1="800" y1="600" x2="800" y2="0" stroke="gray" stroke-width="1" /><line x1="0" y1="0" x2="800" y2="0" stroke="gray" stroke-width="1" /><line x1="0" y1="0" x2="800" y2="0" stroke="gray" stroke-width="1" /><line x1="800" y1="600" x2="800" y2="0" stroke="gray" stroke-width="1" /><line x1="0" y1="0" x2="800" y2="0" stroke="gray" stroke-width="1" /><line x1="800" y1="0" x2="800" y2="0" stroke="gray" stroke-width="1" /><line x1="800" y1="0" x2="800" y2="0" stroke="gray" stroke-width="1" /><line x1="0" y1="0" x2="800" y2="0" stroke="gray" stroke-width="1" /><line x1="800" y1="600" x2="800" y2="0" stroke="gray" stroke-width="1" /><line x1="800" y1="600" x2="800" y2="0" stroke="gray" stroke-width="1" /><line x1="0" y1="600" x2="800" y2="0" stroke="gray" stroke-width="1" /><line x1="0" y1="600" x2="800" y2="0" stroke="gray" stroke-width="1" /><line x1="0" y1="0" x2="800" y2="0" stroke="gray" stroke-width="1" /><line x1="0" y1="600" x2="800" y2="0" stroke="gray" stroke-width="1" /><line x1="0" y1="0" x2="800" y2="0" stroke="gray" stroke-width="1" /><line x1="800" y1="600" x2="800" y2="0" stroke="gray" stroke-width="1" /><line x1="800" y1="600" x2="0" y2="600" stroke="gray" stroke-width="1" /><line x1="800" y1="600" x2="800" y2="0" stroke="gray" stroke-width="1" /><line x1="0" y1="0" x2="800" y2="600" stroke="gray" stroke-width="1" /><line x1="0" y1="0" x2="0" y2="0" stroke="gray" stroke-width="1" /><line x1="800" y1="600" x2="800" y2="600" stroke="gray" stroke-width="1" /><line x1="800" y1="0" x2="800" y2="0" stroke="gray" stroke-width="1" /><line x1="0" y1="0" x2="800" y2="0" stroke="gray" stroke-width="1" /><line x1="0" y1="600" x2="800" y2="600" stroke="gray" stroke-width="1" /><line x1="0" y1="0" x2="800" y2="0" stroke="gray" stroke-width="1" /><line x1="800" y1="600" x2="800" y2="600" stroke="gray" stroke-width="1" /><line x1="0" y1="600" x2="0" y2="0" stroke="gray" stroke-width="1" /><line x1="0" y1="0" x2="0" y2="0" stroke="gray" stroke-width="1" /><line x1="0" y1="600" x2="800" y2="600" stroke="gray" stroke-width="1" /><line x1="0" y1="0" x2="0" y2="0" stroke="gray" stroke-width="1" /><line x1="0" y1="0" x2="0" y2="0" stroke="gray" stroke-width="1" /><line x1="800" y1="600" x2="0" y2="0" stroke="gray" stroke-width="1" /><line x1="0" y1="0" x2="0" y2="600" stroke="gray" stroke-width="1" /><line x1="800" y1="600" x2="0" y2="0" stroke="gray" stroke-width="1" /><line x1="800" y1="600" x2="0" y2="600" stroke="gray" stroke-width="1" /><line x1="800" y1="600" x2="800" y2="600" stroke="gray" stroke-width="1" /><line x1="800" y1="0" x2="800" y2="600" stroke="gray" stroke-width="1" /><line x1="0" y1="0" x2="800" y2="0" stroke="gray" stroke-width="1" /><line x1="0" y1="0" x2="0" y2="600" stroke="gray" stroke-width="1" /><line x1="0" y1="0" x2="800" y2="600" stroke="gray" stroke-width="1" /><line x1="0" y1="600" x2="800" y2="0" stroke="gray" stroke-width="1" /><line x1="0" y1="600" x2="0" y2="0" stroke="gray" stroke-width="1" /><line x1="800" y1="600" x2="800" y2="0" stroke="gray" stroke-width="1" /><line x1="800" y1="0" x2="800" y2="600" stroke="gray" stroke-width="1" /></g><g class="nodes"><circle cx="800" cy="0" r="5" fill="#4285F4" /><text x="800" y="20" text-anchor="middle" font-size="12">Dromedary Camel</text><circle cx="800" cy="600" r="5" fill="#4285F4" /><text x="800" y="620" text-anchor="middle" font-size="12">Fennec Fox</text><circle cx="0" cy="0" r="5" fill="#4285F4" /><text x="0" y="20" text-anchor="middle" font-size="12">Desert Monitor</text><circle cx="800" cy="600" r="5" fill="#4285F4" /><text x="800" y="620" text-anchor="middle" font-size="12">Sidewinder Rattlesnake</text><circle cx="0" cy="600" r="5" fill="#4285F4" /><text x="0" y="620" text-anchor="middle" font-size="12">Deathstalker Scorpion</text><circle cx="800" cy="600" r="5" fill="#4285F4" /><text x="800" y="620" text-anchor="middle" font-size="12">Darkling Beetle</text><circle cx="800" cy="600" r="5" fill="#4285F4" /><text x="800" y="620" text-anchor="middle" font-size="12">Greater Roadrunner</text><circle cx="0" cy="0" r="5" fill="#4285F4" /><text x="0" y="20" text-anchor="middle" font-size="12">Desert Tortoise</text><circle cx="0" cy="0" r="5" fill="#4285F4" /><text x="0" y="20" text-anchor="middle" font-size="12">Cactus Wren</text><circle cx="0" cy="0" r="5" fill="#4285F4" /><text x="0" y="20" text-anchor="middle" font-size="12">Merriam's Kangaroo Rat</text><circle cx="800" cy="600" r="5" fill="#4285F4" /><text x="800" y="620" text-anchor="middle" font-size="12">Gila Monster</text><circle cx="800" cy="0" r="5" fill="#4285F4" /><text x="800" y="20" text-anchor="middle" font-size="12">Javelina</text><circle cx="800" cy="600" r="5" fill="#4285F4" /><text x="800" y="620" text-anchor="middle" font-size="12">Saguaro Cactus</text><circle cx="800" cy="600" r="5" fill="#4285F4" /><text x="800" y="620" text-anchor="middle" font-size="12">Barrel Cactus</text><circle cx="0" cy="600" r="5" fill="#4285F4" /><text x="0" y="620" text-anchor="middle" font-size="12">Honey Mesquite</text><circle cx="0" cy="600" r="5" fill="#4285F4" /><text x="0" y="620" text-anchor="middle" font-size="12">Creosote Bush</text><circle cx="800" cy="0" r="5" fill="#4285F4" /><text x="800" y="20" text-anchor="middle" font-size="12">Desert Poppy</text><circle cx="0" cy="0" r="5" fill="#4285F4" /><text x="0" y="20" text-anchor="middle" font-size="12">Ocotillo</text><circle cx="0" cy="600" r="5" fill="#4285F4" /><text x="0" y="620" text-anchor="middle" font-size="12">Brittlebush</text><circle cx="0" cy="0" r="5" fill="#4285F4" /><text x="0" y="20" text-anchor="middle" font-size="12">Desert Ironwood</text><circle cx="800" cy="600" r="5" fill="#4285F4" /><text x="800" y="620" text-anchor="middle" font-size="12">Century Plant</text><circle cx="800" cy="600" r="5" fill="#4285F4" /><text x="800" y="620" text-anchor="middle" font-size="12">Joshua Tree</text><circle cx="800" cy="600" r="5" fill="#4285F4" /><text x="800" y="620" text-anchor="middle" font-size="12">Prickly Pear Cactus</text><circle cx="800" cy="600" r="5" fill="#4285F4" /><text x="800" y="620" text-anchor="middle" font-size="12">Cholla Cactus</text><circle cx="0" cy="0" r="5" fill="#4285F4" /><text x="0" y="20" text-anchor="middle" font-size="12">Various Desert Plants</text><circle cx="800" cy="0" r="5" fill="#4285F4" /><text x="800" y="20" text-anchor="middle" font-size="12">Extreme Heat</text><circle cx="800" cy="0" r="5" fill="#4285F4" /><text x="800" y="20" text-anchor="middle" font-size="12">Temperature Variation</text><circle cx="800" cy="0" r="5" fill="#4285F4" /><text x="800" y="20" text-anchor="middle" font-size="12">Aridity</text><circle cx="800" cy="0" r="5" fill="#4285F4" /><text x="800" y="20" text-anchor="middle" font-size="12">Sand Dunes</text><circle cx="0" cy="0" r="5" fill="#4285F4" /><text x="0" y="20" text-anchor="middle" font-size="12">Rocky Outcrops</text><circle cx="800" cy="600" r="5" fill="#4285F4" /><text x="800" y="620" text-anchor="middle" font-size="12">Oasis</text><circle cx="800" cy="600" r="5" fill="#4285F4" /><text x="800" y="620" text-anchor="middle" font-size="12">Ephemeral Streams</text><circle cx="0" cy="600" r="5" fill="#4285F4" /><text x="0" y="620" text-anchor="middle" font-size="12">Sandy Soil</text><circle cx="800" cy="600" r="5" fill="#4285F4" /><text x="800" y="620" text-anchor="middle" font-size="12">Desert Pavement</text><circle cx="0" cy="600" r="5" fill="#4285F4" /><text x="0" y="620" text-anchor="middle" font-size="12">Desert Varnish</text><circle cx="800" cy="600" r="5" fill="#4285F4" /><text x="800" y="620" text-anchor="middle" font-size="12">Playa</text><circle cx="800" cy="0" r="5" fill="#4285F4" /><text x="800" y="20" text-anchor="middle" font-size="12">Flash Floods</text><circle cx="0" cy="0" r="5" fill="#4285F4" /><text x="0" y="20" text-anchor="middle" font-size="12">Desert Wash</text><circle cx="800" cy="0" r="5" fill="#4285F4" /><text x="800" y="20" text-anchor="middle" font-size="12">Sand Dune Field</text><circle cx="800" cy="600" r="5" fill="#4285F4" /><text x="800" y="620" text-anchor="middle" font-size="12">Rocky Slope</text><circle cx="800" cy="0" r="5" fill="#4285F4" /><text x="800" y="20" text-anchor="middle" font-size="12">Desert Canyon</text><circle cx="800" cy="0" r="5" fill="#4285F4" /><text x="800" y="20" text-anchor="middle" font-size="12">Yucca-Moth Pollination</text><circle cx="0" cy="0" r="5" fill="#4285F4" /><text x="0" y="20" text-anchor="middle" font-size="12">Nurse Plant Relationship</text><circle cx="800" cy="600" r="5" fill="#4285F4" /><text x="800" y="620" text-anchor="middle" font-size="12">Seed Dispersal</text><circle cx="800" cy="0" r="5" fill="#4285F4" /><text x="800" y="20" text-anchor="middle" font-size="12">Yucca Moth</text><circle cx="0" cy="0" r="5" fill="#4285F4" /><text x="0" y="20" text-anchor="middle" font-size="12">Coyote</text></g></svg>