<?xml version="1.0" encoding="UTF-8"?>
<svg xmlns="http://www.w3.org/2000/svg" width="800" height="600">
    <style>
        .node { fill: #69b3a2; }
        .link { stroke: #999; stroke-opacity: 0.6; }
        text { font-family: sans-serif; font-size: 10px; }
    </style>
    <g class="links">
        <line class="link" x1="0" y1="0" x2="100" y2="100"/>
<line class="link" x1="0" y1="0" x2="100" y2="100"/>
<line class="link" x1="0" y1="0" x2="100" y2="100"/>
<line class="link" x1="0" y1="0" x2="100" y2="100"/>
<line class="link" x1="0" y1="0" x2="100" y2="100"/>
<line class="link" x1="0" y1="0" x2="100" y2="100"/>
<line class="link" x1="0" y1="0" x2="100" y2="100"/>
<line class="link" x1="0" y1="0" x2="100" y2="100"/>
<line class="link" x1="0" y1="0" x2="100" y2="100"/>
<line class="link" x1="0" y1="0" x2="100" y2="100"/>
<line class="link" x1="0" y1="0" x2="100" y2="100"/>
<line class="link" x1="0" y1="0" x2="100" y2="100"/>
<line class="link" x1="0" y1="0" x2="100" y2="100"/>
<line class="link" x1="0" y1="0" x2="100" y2="100"/>
<line class="link" x1="0" y1="0" x2="100" y2="100"/>
<line class="link" x1="0" y1="0" x2="100" y2="100"/>
<line class="link" x1="0" y1="0" x2="100" y2="100"/>
<line class="link" x1="0" y1="0" x2="100" y2="100"/>
<line class="link" x1="0" y1="0" x2="100" y2="100"/>
<line class="link" x1="0" y1="0" x2="100" y2="100"/>
<line class="link" x1="0" y1="0" x2="100" y2="100"/>
<line class="link" x1="0" y1="0" x2="100" y2="100"/>
<line class="link" x1="0" y1="0" x2="100" y2="100"/>
<line class="link" x1="0" y1="0" x2="100" y2="100"/>
<line class="link" x1="0" y1="0" x2="100" y2="100"/>
<line class="link" x1="0" y1="0" x2="100" y2="100"/>
<line class="link" x1="0" y1="0" x2="100" y2="100"/>
<line class="link" x1="0" y1="0" x2="100" y2="100"/>
<line class="link" x1="0" y1="0" x2="100" y2="100"/>
<line class="link" x1="0" y1="0" x2="100" y2="100"/>
<line class="link" x1="0" y1="0" x2="100" y2="100"/>
<line class="link" x1="0" y1="0" x2="100" y2="100"/>
<line class="link" x1="0" y1="0" x2="100" y2="100"/>
<line class="link" x1="0" y1="0" x2="100" y2="100"/>
<line class="link" x1="0" y1="0" x2="100" y2="100"/>
<line class="link" x1="0" y1="0" x2="100" y2="100"/>
<line class="link" x1="0" y1="0" x2="100" y2="100"/>
<line class="link" x1="0" y1="0" x2="100" y2="100"/>
<line class="link" x1="0" y1="0" x2="100" y2="100"/>
<line class="link" x1="0" y1="0" x2="100" y2="100"/>
<line class="link" x1="0" y1="0" x2="100" y2="100"/>
<line class="link" x1="0" y1="0" x2="100" y2="100"/>
<line class="link" x1="0" y1="0" x2="100" y2="100"/>
<line class="link" x1="0" y1="0" x2="100" y2="100"/>
<line class="link" x1="0" y1="0" x2="100" y2="100"/>
<line class="link" x1="0" y1="0" x2="100" y2="100"/>
<line class="link" x1="0" y1="0" x2="100" y2="100"/>
    </g>
    <g class="nodes">
        <circle class="node" cx="100" cy="100" r="5">
              <title>camel</title>
           </circle>
<circle class="node" cx="150" cy="130" r="5">
              <title>fennec_fox</title>
           </circle>
<circle class="node" cx="200" cy="160" r="5">
              <title>desert_monitor</title>
           </circle>
<circle class="node" cx="250" cy="190" r="5">
              <title>sidewinder</title>
           </circle>
<circle class="node" cx="300" cy="220" r="5">
              <title>scorpion</title>
           </circle>
<circle class="node" cx="350" cy="250" r="5">
              <title>darkling_beetle</title>
           </circle>
<circle class="node" cx="400" cy="280" r="5">
              <title>roadrunner</title>
           </circle>
<circle class="node" cx="450" cy="310" r="5">
              <title>desert_tortoise</title>
           </circle>
<circle class="node" cx="500" cy="340" r="5">
              <title>cactus_wren</title>
           </circle>
<circle class="node" cx="550" cy="370" r="5">
              <title>kangaroo_rat</title>
           </circle>
<circle class="node" cx="600" cy="400" r="5">
              <title>gila_monster</title>
           </circle>
<circle class="node" cx="650" cy="430" r="5">
              <title>javelina</title>
           </circle>
<circle class="node" cx="700" cy="460" r="5">
              <title>saguaro</title>
           </circle>
<circle class="node" cx="750" cy="490" r="5">
              <title>barrel_cactus</title>
           </circle>
<circle class="node" cx="800" cy="520" r="5">
              <title>mesquite</title>
           </circle>
<circle class="node" cx="850" cy="550" r="5">
              <title>creosote_bush</title>
           </circle>
<circle class="node" cx="900" cy="580" r="5">
              <title>desert_poppy</title>
           </circle>
<circle class="node" cx="950" cy="610" r="5">
              <title>ocotillo</title>
           </circle>
<circle class="node" cx="1000" cy="640" r="5">
              <title>brittlebush</title>
           </circle>
<circle class="node" cx="1050" cy="670" r="5">
              <title>desert_ironwood</title>
           </circle>
<circle class="node" cx="1100" cy="700" r="5">
              <title>agave</title>
           </circle>
<circle class="node" cx="1150" cy="730" r="5">
              <title>joshua_tree</title>
           </circle>
<circle class="node" cx="1200" cy="760" r="5">
              <title>prickly_pear</title>
           </circle>
<circle class="node" cx="1250" cy="790" r="5">
              <title>cholla_cactus</title>
           </circle>
<circle class="node" cx="1300" cy="820" r="5">
              <title>other_plants</title>
           </circle>
<circle class="node" cx="1350" cy="850" r="5">
              <title>heat</title>
           </circle>
<circle class="node" cx="1400" cy="880" r="5">
              <title>temperature_variation</title>
           </circle>
<circle class="node" cx="1450" cy="910" r="5">
              <title>aridity</title>
           </circle>
<circle class="node" cx="1500" cy="940" r="5">
              <title>sand_dunes</title>
           </circle>
<circle class="node" cx="1550" cy="970" r="5">
              <title>rocky_outcrops</title>
           </circle>
<circle class="node" cx="1600" cy="1000" r="5">
              <title>oasis</title>
           </circle>
<circle class="node" cx="1650" cy="1030" r="5">
              <title>ephemeral_streams</title>
           </circle>
<circle class="node" cx="1700" cy="1060" r="5">
              <title>sandy_soil</title>
           </circle>
<circle class="node" cx="1750" cy="1090" r="5">
              <title>desert_pavement</title>
           </circle>
<circle class="node" cx="1800" cy="1120" r="5">
              <title>desert_varnish</title>
           </circle>
<circle class="node" cx="1850" cy="1150" r="5">
              <title>playa</title>
           </circle>
<circle class="node" cx="1900" cy="1180" r="5">
              <title>flash_floods</title>
           </circle>
<circle class="node" cx="1950" cy="1210" r="5">
              <title>wash</title>
           </circle>
<circle class="node" cx="2000" cy="1240" r="5">
              <title>dune_field</title>
           </circle>
<circle class="node" cx="2050" cy="1270" r="5">
              <title>rocky_slope</title>
           </circle>
<circle class="node" cx="2100" cy="1300" r="5">
              <title>canyon</title>
           </circle>
<circle class="node" cx="2150" cy="1330" r="5">
              <title>pollination_yucca</title>
           </circle>
<circle class="node" cx="2200" cy="1360" r="5">
              <title>nurse_plant</title>
           </circle>
<circle class="node" cx="2250" cy="1390" r="5">
              <title>seed_dispersal</title>
           </circle>
<circle class="node" cx="2300" cy="1420" r="5">
              <title>yucca_moth</title>
           </circle>
<circle class="node" cx="2350" cy="1450" r="5">
              <title>coyote</title>
           </circle>
    </g>
</svg>