<?xml version="1.0" encoding="UTF-8"?>
<svg xmlns="http://www.w3.org/2000/svg" width="800" height="600">
    <style>
        .node { fill: #69b3a2; }
        .link { stroke: #999; stroke-opacity: 0.6; }
        text { font-family: sans-serif; font-size: 10px; }
    </style>
    <g class="links">
        <line class="link" x1="0" y1="0" x2="100" y2="100"/>
<line class="link" x1="0" y1="0" x2="100" y2="100"/>
<line class="link" x1="0" y1="0" x2="100" y2="100"/>
<line class="link" x1="0" y1="0" x2="100" y2="100"/>
<line class="link" x1="0" y1="0" x2="100" y2="100"/>
<line class="link" x1="0" y1="0" x2="100" y2="100"/>
<line class="link" x1="0" y1="0" x2="100" y2="100"/>
<line class="link" x1="0" y1="0" x2="100" y2="100"/>
<line class="link" x1="0" y1="0" x2="100" y2="100"/>
<line class="link" x1="0" y1="0" x2="100" y2="100"/>
<line class="link" x1="0" y1="0" x2="100" y2="100"/>
<line class="link" x1="0" y1="0" x2="100" y2="100"/>
<line class="link" x1="0" y1="0" x2="100" y2="100"/>
<line class="link" x1="0" y1="0" x2="100" y2="100"/>
<line class="link" x1="0" y1="0" x2="100" y2="100"/>
<line class="link" x1="0" y1="0" x2="100" y2="100"/>
<line class="link" x1="0" y1="0" x2="100" y2="100"/>
<line class="link" x1="0" y1="0" x2="100" y2="100"/>
<line class="link" x1="0" y1="0" x2="100" y2="100"/>
<line class="link" x1="0" y1="0" x2="100" y2="100"/>
<line class="link" x1="0" y1="0" x2="100" y2="100"/>
<line class="link" x1="0" y1="0" x2="100" y2="100"/>
<line class="link" x1="0" y1="0" x2="100" y2="100"/>
<line class="link" x1="0" y1="0" x2="100" y2="100"/>
<line class="link" x1="0" y1="0" x2="100" y2="100"/>
<line class="link" x1="0" y1="0" x2="100" y2="100"/>
<line class="link" x1="0" y1="0" x2="100" y2="100"/>
<line class="link" x1="0" y1="0" x2="100" y2="100"/>
<line class="link" x1="0" y1="0" x2="100" y2="100"/>
<line class="link" x1="0" y1="0" x2="100" y2="100"/>
<line class="link" x1="0" y1="0" x2="100" y2="100"/>
<line class="link" x1="0" y1="0" x2="100" y2="100"/>
<line class="link" x1="0" y1="0" x2="100" y2="100"/>
<line class="link" x1="0" y1="0" x2="100" y2="100"/>
<line class="link" x1="0" y1="0" x2="100" y2="100"/>
<line class="link" x1="0" y1="0" x2="100" y2="100"/>
<line class="link" x1="0" y1="0" x2="100" y2="100"/>
<line class="link" x1="0" y1="0" x2="100" y2="100"/>
<line class="link" x1="0" y1="0" x2="100" y2="100"/>
<line class="link" x1="0" y1="0" x2="100" y2="100"/>
<line class="link" x1="0" y1="0" x2="100" y2="100"/>
<line class="link" x1="0" y1="0" x2="100" y2="100"/>
<line class="link" x1="0" y1="0" x2="100" y2="100"/>
<line class="link" x1="0" y1="0" x2="100" y2="100"/>
<line class="link" x1="0" y1="0" x2="100" y2="100"/>
<line class="link" x1="0" y1="0" x2="100" y2="100"/>
<line class="link" x1="0" y1="0" x2="100" y2="100"/>
<line class="link" x1="0" y1="0" x2="100" y2="100"/>
<line class="link" x1="0" y1="0" x2="100" y2="100"/>
<line class="link" x1="0" y1="0" x2="100" y2="100"/>
<line class="link" x1="0" y1="0" x2="100" y2="100"/>
<line class="link" x1="0" y1="0" x2="100" y2="100"/>
<line class="link" x1="0" y1="0" x2="100" y2="100"/>
<line class="link" x1="0" y1="0" x2="100" y2="100"/>
<line class="link" x1="0" y1="0" x2="100" y2="100"/>
<line class="link" x1="0" y1="0" x2="100" y2="100"/>
<line class="link" x1="0" y1="0" x2="100" y2="100"/>
<line class="link" x1="0" y1="0" x2="100" y2="100"/>
<line class="link" x1="0" y1="0" x2="100" y2="100"/>
<line class="link" x1="0" y1="0" x2="100" y2="100"/>
<line class="link" x1="0" y1="0" x2="100" y2="100"/>
<line class="link" x1="0" y1="0" x2="100" y2="100"/>
<line class="link" x1="0" y1="0" x2="100" y2="100"/>
<line class="link" x1="0" y1="0" x2="100" y2="100"/>
<line class="link" x1="0" y1="0" x2="100" y2="100"/>
<line class="link" x1="0" y1="0" x2="100" y2="100"/>
<line class="link" x1="0" y1="0" x2="100" y2="100"/>
<line class="link" x1="0" y1="0" x2="100" y2="100"/>
<line class="link" x1="0" y1="0" x2="100" y2="100"/>
<line class="link" x1="0" y1="0" x2="100" y2="100"/>
<line class="link" x1="0" y1="0" x2="100" y2="100"/>
<line class="link" x1="0" y1="0" x2="100" y2="100"/>
<line class="link" x1="0" y1="0" x2="100" y2="100"/>
<line class="link" x1="0" y1="0" x2="100" y2="100"/>
<line class="link" x1="0" y1="0" x2="100" y2="100"/>
<line class="link" x1="0" y1="0" x2="100" y2="100"/>
<line class="link" x1="0" y1="0" x2="100" y2="100"/>
<line class="link" x1="0" y1="0" x2="100" y2="100"/>
<line class="link" x1="0" y1="0" x2="100" y2="100"/>
<line class="link" x1="0" y1="0" x2="100" y2="100"/>
<line class="link" x1="0" y1="0" x2="100" y2="100"/>
<line class="link" x1="0" y1="0" x2="100" y2="100"/>
<line class="link" x1="0" y1="0" x2="100" y2="100"/>
<line class="link" x1="0" y1="0" x2="100" y2="100"/>
<line class="link" x1="0" y1="0" x2="100" y2="100"/>
<line class="link" x1="0" y1="0" x2="100" y2="100"/>
<line class="link" x1="0" y1="0" x2="100" y2="100"/>
<line class="link" x1="0" y1="0" x2="100" y2="100"/>
<line class="link" x1="0" y1="0" x2="100" y2="100"/>
<line class="link" x1="0" y1="0" x2="100" y2="100"/>
<line class="link" x1="0" y1="0" x2="100" y2="100"/>
<line class="link" x1="0" y1="0" x2="100" y2="100"/>
    </g>
    <g class="nodes">
        <circle class="node" cx="100" cy="100" r="5">
              <title>alice-chen</title>
           </circle>
<circle class="node" cx="150" cy="130" r="5">
              <title>bob-smith</title>
           </circle>
<circle class="node" cx="200" cy="160" r="5">
              <title>carol-jones</title>
           </circle>
<circle class="node" cx="250" cy="190" r="5">
              <title>david-patel</title>
           </circle>
<circle class="node" cx="300" cy="220" r="5">
              <title>elena-rodriguez</title>
           </circle>
<circle class="node" cx="350" cy="250" r="5">
              <title>frank-zhang</title>
           </circle>
<circle class="node" cx="400" cy="280" r="5">
              <title>grace-kim</title>
           </circle>
<circle class="node" cx="450" cy="310" r="5">
              <title>computer-vision-project</title>
           </circle>
<circle class="node" cx="500" cy="340" r="5">
              <title>nlp-project</title>
           </circle>
<circle class="node" cx="550" cy="370" r="5">
              <title>federated-learning-project</title>
           </circle>
<circle class="node" cx="600" cy="400" r="5">
              <title>quantum-ml-project</title>
           </circle>
<circle class="node" cx="650" cy="430" r="5">
              <title>adaptive-robotics-project</title>
           </circle>
<circle class="node" cx="700" cy="460" r="5">
              <title>vision-paper-2022</title>
           </circle>
<circle class="node" cx="750" cy="490" r="5">
              <title>nlp-paper-2023</title>
           </circle>
<circle class="node" cx="800" cy="520" r="5">
              <title>federated-paper-2023</title>
           </circle>
<circle class="node" cx="850" cy="550" r="5">
              <title>robotics-paper-2022</title>
           </circle>
<circle class="node" cx="900" cy="580" r="5">
              <title>quantum-paper-2023</title>
           </circle>
<circle class="node" cx="950" cy="610" r="5">
              <title>survey-paper-2023</title>
           </circle>
<circle class="node" cx="1000" cy="640" r="5">
              <title>gpu-cluster</title>
           </circle>
<circle class="node" cx="1050" cy="670" r="5">
              <title>robotics-lab</title>
           </circle>
<circle class="node" cx="1100" cy="700" r="5">
              <title>quantum-computer</title>
           </circle>
<circle class="node" cx="1150" cy="730" r="5">
              <title>hpc-cluster</title>
           </circle>
<circle class="node" cx="1200" cy="760" r="5">
              <title>data-collection-system</title>
           </circle>
<circle class="node" cx="1250" cy="790" r="5">
              <title>conference-room</title>
           </circle>
<circle class="node" cx="1300" cy="820" r="5">
              <title>visualization-lab</title>
           </circle>
<circle class="node" cx="1350" cy="850" r="5">
              <title>machine-learning-theory</title>
           </circle>
<circle class="node" cx="1400" cy="880" r="5">
              <title>computer-vision</title>
           </circle>
<circle class="node" cx="1450" cy="910" r="5">
              <title>nlp</title>
           </circle>
<circle class="node" cx="1500" cy="940" r="5">
              <title>privacy-ml</title>
           </circle>
<circle class="node" cx="1550" cy="970" r="5">
              <title>quantum-ml</title>
           </circle>
<circle class="node" cx="1600" cy="1000" r="5">
              <title>robotics</title>
           </circle>
<circle class="node" cx="1650" cy="1030" r="5">
              <title>reinforcement-learning</title>
           </circle>
<circle class="node" cx="1700" cy="1060" r="5">
              <title>nsf-grant</title>
           </circle>
<circle class="node" cx="1750" cy="1090" r="5">
              <title>tech-partner</title>
           </circle>
<circle class="node" cx="1800" cy="1120" r="5">
              <title>university-fund</title>
           </circle>
    </g>
</svg>